<?xml version="1.0" encoding="utf-8"?>
<!-- Generator: Adobe Illustrator 16.0.0, SVG Export Plug-In . SVG Version: 6.00 Build 0)  -->
<!DOCTYPE svg PUBLIC "-//W3C//DTD SVG 1.1//EN" "http://www.w3.org/Graphics/SVG/1.1/DTD/svg11.dtd">
<svg version="1.1" id="Capa_1" xmlns="http://www.w3.org/2000/svg" xmlns:xlink="http://www.w3.org/1999/xlink" x="0px" y="0px"
	 width="400px" height="88px" viewBox="0 0 400 88" enable-background="new 0 0 400 88" xml:space="preserve">
<g>
	<path fill="#FF6A14" d="M349.81,4.485l49.736,29.576L349.81,63.638V4.485z M399.546,34.061c0-18.604-15.091-33.702-33.701-33.702
		c-18.605,0-33.702,15.098-33.702,33.702c0,18.613,15.097,33.704,33.702,33.704C384.455,67.765,399.546,52.674,399.546,34.061"/>
	<path fill="#5B6770" d="M374.26,33.967c0-4.651-3.771-8.415-8.413-8.415c-4.657,0-8.415,3.764-8.415,8.415
		c0,4.642,3.758,8.407,8.415,8.407C370.489,42.375,374.26,38.609,374.26,33.967"/>
	<path fill="#5B6770" d="M32.856,40.806c0-3.127-1.132-5.785-3.399-7.958c-2.257-2.165-4.856-3.254-7.81-3.254h-9.079v23.12h8.724
		c3.378,0,6.154-1.107,8.309-3.345C31.771,47.137,32.856,44.285,32.856,40.806 M46.129,40.152c0,6.465-1.993,11.404-5.964,14.835
		c-4.163,3.624-10.333,5.438-18.518,5.438H0V21.888h25.007c6.283,0,11.384,1.705,15.266,5.106
		C44.177,30.412,46.129,34.782,46.129,40.152"/>
	<path fill="#5B6770" d="M93.307,43.314c0,5.905-1.43,10.254-4.296,13.045c-3.431,3.308-9.242,4.959-17.473,4.959
		c-8.331,0-14.21-1.491-17.635-4.489c-3.147-2.791-4.713-7.301-4.713-13.515V21.886h12.564v21.468c0,3.354,0.825,5.975,2.479,7.868
		c1.656,1.892,3.907,2.838,6.789,2.838c2.747,0,4.988-0.807,6.714-2.427c2.005-1.895,3.014-4.652,3.014-8.279V21.886h12.557V43.314z
		"/>
	<path fill="#5B6770" d="M144.163,47.628c-0.523,5.072-3.203,8.754-8.086,11.056c-3.74,1.755-8.597,2.632-14.572,2.632
		c-8.925,0-15.337-1.87-19.224-5.619c-3.349-3.194-5.012-7.991-5.012-14.383c0-6.037,1.905-10.894,5.717-14.565
		c4.249-4.064,10.341-6.1,18.284-6.1c4.95,0,9.177,0.617,12.683,1.826c4.832,1.649,7.909,4.319,9.205,8.009
		c0.112,0.709,0.226,1.489,0.316,2.333c0.1,0.839,0.163,1.426,0.163,1.737h-13.754l-0.646-2.716
		c-0.904-1.133-2.066-2.001-3.486-2.592c-1.408-0.588-2.884-0.881-4.417-0.881c-3.617,0-6.353,1.354-8.197,4.044
		c-1.578,2.341-2.369,5.309-2.369,8.918c0,3.65,0.791,6.588,2.369,8.803c1.845,2.619,4.627,3.931,8.368,3.931
		c1.999,0,3.677-0.301,5.016-0.887c1.604-0.708,2.771-1.851,3.48-3.42l0.474-2.125H144.163z"/>
	<path fill="#5B6770" d="M176.742,45.902l-7.49-15.639l-7.01,15.639H176.742z M198.338,60.427h-14.514l-3.48-7.04h-21.762
		l-3.479,7.04h-12.556l20.164-38.541h14.868L198.338,60.427z"/>
	<path fill="#5B6770" d="M239.78,48.133c0,4.647-2.128,8.15-6.372,10.518c-3.507,1.929-7.961,2.89-13.392,2.89
		c-7.438,0-12.661-0.818-15.684-2.473c-2.671-1.45-4.464-3.714-5.364-6.785c-0.119-0.545-0.223-1.145-0.294-1.794
		c-0.085-0.648-0.129-1.271-0.129-1.853h12.632c0.179,1.473,0.516,2.584,0.978,3.351c0.444,0.76,1.323,1.347,2.616,1.781
		c1.412,0.156,2.355,0.242,2.8,0.265c0.454,0.016,0.954,0.026,1.508,0.026c1.255,0,2.358-0.111,3.304-0.328
		c0.946-0.214,1.904-0.601,2.924-1.17c0.995-0.574,1.495-1.375,1.495-2.397c0-0.748-0.258-1.407-0.766-1.975
		c-0.521-0.573-1.279-1.005-2.309-1.332c-2.632-0.551-5.781-1.336-9.424-2.359c-3.158-0.903-6.297-1.812-9.444-2.717
		c-1.737-0.784-3.101-2.001-4.096-3.661c-1.002-1.645-1.506-3.458-1.506-5.429c0-1.77,0.431-3.418,1.294-4.956
		c0.864-1.529,2.243-2.835,4.133-3.919c1.882-1.086,4.085-1.878,6.578-2.391c2.493-0.514,5.154-0.775,7.987-0.775
		c2.399,0,4.968,0.159,7.665,0.478c2.717,0.325,4.979,1.068,6.782,2.257c2.129,1.429,3.564,3.469,4.312,6.11l0.346,2.62h-12.199
		c0-0.674-0.119-1.353-0.355-2.033c-0.514-0.964-1.459-1.63-2.84-2.033c-0.853-0.24-2.064-0.357-3.649-0.357
		c-1.729,0-3.127,0.201-4.188,0.594c-1.459,0.508-2.32,1.336-2.59,2.48c-0.038,0.154-0.065,0.395-0.065,0.705
		c0,0.789,0.458,1.458,1.358,2.011c0.552,0.313,1.478,0.669,2.784,1.067l11.606,3.005c3.427,1.022,6.014,2.213,7.784,3.546
		C238.517,42.993,239.78,45.343,239.78,48.133"/>
	<path fill="#5B6770" d="M282.016,48.133c0,4.647-2.136,8.15-6.37,10.518c-3.504,1.929-7.961,2.89-13.398,2.89
		c-7.43,0-12.657-0.818-15.678-2.473c-2.686-1.45-4.465-3.714-5.369-6.785c-0.129-0.545-0.214-1.145-0.302-1.794
		c-0.085-0.648-0.116-1.271-0.116-1.853h12.623c0.19,1.473,0.514,2.584,0.966,3.351c0.448,0.76,1.333,1.347,2.634,1.781
		c1.414,0.156,2.349,0.242,2.798,0.265c0.453,0.016,0.948,0.026,1.508,0.026c1.271,0,2.36-0.111,3.309-0.328
		c0.934-0.214,1.907-0.601,2.913-1.17c0.995-0.574,1.503-1.375,1.503-2.397c0-0.748-0.258-1.407-0.764-1.975
		c-0.518-0.573-1.285-1.005-2.296-1.332c-2.64-0.551-5.785-1.336-9.446-2.359c-3.142-0.903-6.285-1.812-9.438-2.717
		c-1.728-0.784-3.096-2.001-4.092-3.661c-1.016-1.645-1.517-3.458-1.517-5.429c0-1.77,0.432-3.418,1.295-4.956
		c0.878-1.529,2.249-2.835,4.148-3.919c1.874-1.086,4.065-1.878,6.57-2.391c2.495-0.514,5.163-0.775,7.989-0.775
		c2.399,0,4.958,0.159,7.675,0.478c2.707,0.325,4.954,1.068,6.777,2.257c2.117,1.429,3.558,3.469,4.308,6.11l0.354,2.62h-12.211
		c0-0.674-0.117-1.353-0.358-2.033c-0.512-0.964-1.45-1.63-2.818-2.033c-0.879-0.24-2.095-0.357-3.669-0.357
		c-1.74,0-3.124,0.201-4.184,0.594c-1.455,0.508-2.316,1.336-2.596,2.48c-0.037,0.154-0.063,0.395-0.063,0.705
		c0,0.789,0.464,1.458,1.36,2.011c0.55,0.313,1.474,0.669,2.775,1.067l11.617,3.005c3.42,1.022,6.014,2.213,7.786,3.546
		C280.752,42.993,282.016,45.343,282.016,48.133"/>
	<polygon fill="#5B6770" points="320.813,60.427 286.598,60.427 286.598,21.886 320.813,21.886 320.813,29.595 299.157,29.595 
		299.157,36.963 319.222,36.963 319.222,44.784 299.157,44.784 299.157,52.711 320.813,52.711 	"/>
	<rect x="240.488" y="75.8" fill="#5B6770" width="1.646" height="11.501"/>
	<polygon fill="#5B6770" points="251.604,75.8 253.53,75.8 259.601,85.09 259.601,75.8 261.156,75.8 261.156,87.301 259.323,87.301 
		253.153,77.983 253.153,87.301 251.604,87.301 	"/>
	<path fill="#5B6770" d="M275.186,85.922c0.551,0,0.993-0.045,1.36-0.146c0.604-0.198,1.127-0.594,1.533-1.177
		c0.31-0.455,0.545-1.044,0.687-1.77c0.081-0.421,0.125-0.83,0.125-1.184c0-1.428-0.306-2.524-0.883-3.305
		c-0.587-0.792-1.533-1.186-2.836-1.186h-2.849v8.767H275.186z M270.642,75.8h4.865c1.644,0,2.933,0.559,3.838,1.692
		c0.831,1.003,1.203,2.294,1.203,3.884c0,1.222-0.224,2.324-0.693,3.319c-0.854,1.738-2.297,2.607-4.352,2.607h-4.861V75.8z"/>
	<path fill="#5B6770" d="M291.354,75.8v7.083c0,0.831,0.166,1.533,0.497,2.087c0.5,0.833,1.325,1.244,2.493,1.244
		c1.406,0,2.36-0.44,2.855-1.344c0.272-0.482,0.399-1.156,0.399-1.987V75.8h1.666v6.457c0,1.417-0.183,2.498-0.611,3.246
		c-0.726,1.388-2.116,2.091-4.161,2.091c-2.063,0-3.446-0.703-4.188-2.091c-0.395-0.749-0.601-1.829-0.601-3.246V75.8H291.354z"/>
	<path fill="#5B6770" d="M309.646,83.58c0.05,0.667,0.194,1.189,0.479,1.596c0.529,0.755,1.451,1.136,2.784,1.136
		c0.577,0,1.132-0.081,1.612-0.248c0.94-0.323,1.416-0.893,1.416-1.724c0-0.627-0.204-1.068-0.609-1.342
		c-0.404-0.266-1.037-0.467-1.905-0.664l-1.579-0.342c-1.057-0.227-1.78-0.476-2.223-0.761c-0.742-0.492-1.115-1.21-1.115-2.158
		c0-1.046,0.365-1.911,1.097-2.569c0.746-0.652,1.775-0.993,3.126-0.993c1.239,0,2.297,0.288,3.149,0.878
		c0.879,0.575,1.312,1.516,1.312,2.783h-1.552c-0.065-0.622-0.237-1.073-0.493-1.396c-0.494-0.601-1.304-0.901-2.451-0.901
		c-0.937,0-1.609,0.187-2.014,0.577c-0.406,0.386-0.616,0.832-0.616,1.347c0,0.558,0.235,0.966,0.724,1.223
		c0.319,0.171,1.031,0.381,2.14,0.633l1.646,0.369c0.797,0.173,1.426,0.429,1.849,0.742c0.747,0.522,1.118,1.293,1.118,2.32
		c0,1.283-0.482,2.182-1.422,2.716c-0.962,0.564-2.07,0.84-3.326,0.84c-1.483,0-2.655-0.367-3.467-1.111
		c-0.841-0.706-1.235-1.696-1.224-2.95H309.646z"/>
	<polygon fill="#5B6770" points="335.473,75.8 335.473,77.155 331.355,77.155 331.355,87.301 329.707,87.301 329.707,77.155 
		325.612,77.155 325.612,75.8 	"/>
	<path fill="#5B6770" d="M349.272,81.073c0.77,0,1.349-0.143,1.788-0.44c0.431-0.292,0.649-0.811,0.649-1.56
		c0-0.835-0.313-1.387-0.923-1.677c-0.323-0.154-0.743-0.241-1.309-0.241h-3.873v3.918H349.272z M343.934,75.8h5.527
		c0.912,0,1.668,0.133,2.249,0.382c1.116,0.49,1.676,1.393,1.676,2.726c0,0.673-0.155,1.258-0.464,1.696
		c-0.292,0.43-0.709,0.778-1.258,1.068c0.483,0.165,0.837,0.417,1.081,0.705c0.228,0.307,0.364,0.783,0.4,1.443l0.048,1.547
		c0.02,0.429,0.054,0.75,0.112,0.969c0.098,0.381,0.278,0.6,0.522,0.711v0.253h-2.01c-0.063-0.095-0.099-0.223-0.135-0.378
		c-0.02-0.166-0.05-0.469-0.075-0.91l-0.117-1.905c-0.035-0.75-0.313-1.249-0.856-1.51c-0.31-0.138-0.779-0.221-1.424-0.221h-3.605
		v4.924h-1.672V75.8z"/>
	<rect x="363.104" y="75.8" fill="#5B6770" width="1.648" height="11.501"/>
	<path fill="#5B6770" d="M380.499,82.584l-1.871-5.078l-1.943,5.078H380.499z M377.768,75.8h1.864l4.401,11.501h-1.812l-1.257-3.458
		h-4.771l-1.317,3.458h-1.693L377.768,75.8z"/>
	<polygon fill="#5B6770" points="392.297,75.8 393.943,75.8 393.943,85.922 400,85.922 400,87.301 392.297,87.301 	"/>
</g>
</svg>
